# xmcd
#
# Track frame offsets: 
#        150
#        21597
#        41553
#        64187
#        84351
#        101613
#        120646
#        140610
#        154575
#        172607
#        188780
#        209939
#
# Disc length: 3068 seconds
#
# Revision: 0
# Processed by: cddbd v1.5.2PL0 Copyright (c) Steve Scherf et al.
# Submitted via: ExactAudioCopy v1.3
#
DISCID=a40bfa0c
DTITLE=Bey Paule Band - Not Goin' Away
DYEAR=2015
DGENRE=Blues
TTITLE0=Black Bottom
TTITLE1=Kiss Me Like You Mean It
TTITLE2=Right In Front Of You
TTITLE3=Next To My Heart
TTITLE4=Someone You Use
TTITLE5=This Party's Done
TTITLE6=Nobody's Angel
TTITLE7=Not Goin' Away
TTITLE8=Ballad Of The Lover Man
TTITLE9=Noel's Haze
TTITLE10=Don't Ask Me How I Feel
TTITLE11=If I Could Reach Out
EXTD=
EXTT0=
EXTT1=
EXTT2=
EXTT3=
EXTT4=
EXTT5=
EXTT6=
EXTT7=
EXTT8=
EXTT9=
EXTT10=
EXTT11=
PLAYORDER=
